<svg width="512" height="512" viewBox="0 0 512 512" fill="none" xmlns="http://www.w3.org/2000/svg">
<path d="M36 296.307V216H88.3497L102.891 230.542V281.672L85.9104 296.307H71.5565L54.5757 280.733H82.064L86.0981 276.23V235.326L82.4392 231.198H52.3241V296.307H36Z" fill="black"/>
<path d="M113.211 296.307V216H162.84L177.663 229.979V249.68L158.618 265.16L177.663 296.307H160.682L132.256 248.93H156.836L160.87 244.708V234.951L156.836 231.386H129.629V296.307H113.211Z" fill="black"/>
<path d="M207.872 216H233.953L260.691 296.307H242.584L237.8 279.608L216.597 265.723H232.827L220.443 228.102L198.49 296.307H180.571L207.872 216Z" fill="black"/>
<path d="M263.505 216V296.307H281.143V275.949L290.243 265.723L334.525 216H312.947L280.861 253.714V216H263.505Z" fill="black"/>
<path d="M314.073 296.307L290.243 265.723H310.883L334.525 296.307H314.073Z" fill="black"/>
<path d="M337.996 216H395.787V231.761H354.789V281.015H395.787V296.307H337.996V216Z" fill="black"/>
<path d="M391.19 248.367V264.128H376.273L358.542 248.367H391.19Z" fill="black"/>
<path d="M404.512 216H430.874L467.181 296.307H450.013L420.93 231.761V296.307H404.512V216Z" fill="black"/>
<path d="M476 216H459.301V279.42H476V216Z" fill="black"/>
</svg>
